<svg width="43" height="57" viewBox="0 0 43 57" fill="none" xmlns="http://www.w3.org/2000/svg">
<path d="M4.24 39V11.8H7.88C10.3067 15.2667 12.5333 18.76 14.56 22.28C16.6133 25.7733 18.5333 29.4267 20.32 33.24L19.92 22.84V11.8H23.32V39H19.68C17.8133 35.1067 15.88 31.32 13.88 27.64C11.9067 23.9333 9.74667 20.32 7.4 16.8L7.64 27.88V39H4.24Z" fill="#454545"/>
<path d="M39.76 31.4V37.36C39.76 40.7467 38.9067 43.44 37.2 45.44C35.52 47.4133 33.0933 48.4 29.92 48.4C26.7467 48.4 24.3067 47.4133 22.6 45.44C20.92 43.44 20.08 40.7467 20.08 37.36V31.4C20.08 28.04 20.92 25.3733 22.6 23.4C24.3067 21.4 26.7467 20.4 29.92 20.4C33.0933 20.4 35.52 21.4 37.2 23.4C38.9067 25.3733 39.76 28.04 39.76 31.4ZM36.16 31.4C36.16 28.92 35.6267 27.0133 34.56 25.68C33.52 24.32 31.9733 23.64 29.92 23.64C27.8933 23.64 26.3467 24.32 25.28 25.68C24.2133 27.0133 23.68 28.92 23.68 31.4V37.36C23.68 39.8667 24.2133 41.8 25.28 43.16C26.3467 44.52 27.8933 45.2 29.92 45.2C31.9733 45.2 33.52 44.52 34.56 43.16C35.6267 41.8 36.16 39.8667 36.16 37.36V31.4Z" fill="#454545"/>
</svg>
